<svg width="18" height="18" viewBox="0 0 18 18" fill="none" xmlns="http://www.w3.org/2000/svg">
<path fill-rule="evenodd" clip-rule="evenodd" d="M13.3809 10.2H12.7751C12.7471 10.2 12.7231 10.224 12.7231 10.252L12.7591 11.6L12.7347 12.5147C12.5196 12.8131 12.1713 13 11.7911 13H10.8426C10.8705 12.9998 10.8943 12.9759 10.8943 12.948L10.8703 12.028H11.3543C11.4658 12.028 11.5699 12.0185 11.6658 12H11.7911C11.8465 12 11.9018 11.9687 11.9325 11.9161C12.2462 11.7712 12.4223 11.4902 12.4223 11.1C12.4223 10.8785 12.3687 10.6973 12.2667 10.5571L13.5711 5.13C13.5811 5.06 13.5411 5 13.4711 5H12.2811C12.2111 5 12.1411 5.06 12.1311 5.13L11.151 10.2H10.9112L9.9311 5.13C9.9211 5.06 9.8511 5 9.7811 5H8.2711C8.2011 5 8.1311 5.06 8.1211 5.13L7.0711 10.75L5.9711 5.13C5.9611 5.06 5.8911 5 5.8211 5H4.5311C4.4711 5 4.4111 5.06 4.4311 5.13L6.0111 11.87C6.0311 11.95 6.1011 12 6.1711 12H7.8011C7.8711 12 7.9411 11.95 7.9611 11.87L8 11.683V11.792C8 11.82 8.024 11.844 8.052 11.844H8.712V12.558C8.49527 12.8311 8.16263 13 7.8011 13H6.1711C5.64031 13 5.17178 12.6358 5.04096 12.1125L5.03917 12.1054L3.46035 5.37041C3.3644 4.99003 3.48488 4.63366 3.68619 4.39462C3.87776 4.16712 4.17866 4 4.5311 4H5.8211C6.136 4 6.39575 4.12952 6.57222 4.28193C6.742 4.42855 6.90276 4.65522 6.95508 4.9512L7.04826 5.42726L7.13604 4.95745C7.18718 4.65841 7.34901 4.42958 7.51998 4.28193C7.69645 4.12952 7.9562 4 8.2711 4H9.7811C10.096 4 10.3558 4.12952 10.5322 4.28193C10.7023 4.42883 10.8634 4.65608 10.9154 4.95289L11.0311 5.5515L11.1468 4.95288C11.1988 4.65608 11.3599 4.42883 11.53 4.28193C11.7064 4.12952 11.9662 4 12.2811 4H13.4711C13.8175 4 14.1464 4.16093 14.3562 4.44555C14.5523 4.7117 14.5973 5.01792 14.561 5.27143L14.5544 5.31798L13.3809 10.2ZM9.172 12.3575V11.844H9.828C9.856 11.844 9.88 11.82 9.88 11.792V11.452C9.88 11.424 9.856 11.4 9.828 11.4H9.172V10.652C9.172 10.624 9.148 10.6 9.12 10.6H8.764C8.736 10.6 8.712 10.624 8.712 10.652V11.4H8.05885L8.9511 7.11L10.0511 11.87C10.0711 11.95 10.1411 12 10.2111 12H10.2808L10.2583 12.948C10.2583 12.9759 10.2821 12.9998 10.31 13H10.2111C9.76784 13 9.36801 12.746 9.172 12.3575ZM11.0651 10.644L11.0311 10.82L10.9971 10.644H11.0651Z" fill="black"/>
<path fill-rule="evenodd" clip-rule="evenodd" d="M8.712 11.844H8.052C8.024 11.844 8 11.82 8 11.792V11.452C8 11.424 8.024 11.4 8.052 11.4H8.712V10.652C8.712 10.624 8.736 10.6 8.764 10.6H9.12C9.148 10.6 9.172 10.624 9.172 10.652V11.4H9.828C9.83726 11.4 9.84608 11.4026 9.85375 11.4072C9.85838 11.4099 9.86259 11.4133 9.86621 11.4173C9.87472 11.4266 9.88 11.4389 9.88 11.452V11.792C9.88 11.8059 9.8741 11.8188 9.86473 11.8283C9.86195 11.8311 9.85886 11.8336 9.85553 11.8357C9.84747 11.8409 9.83799 11.844 9.828 11.844H9.172V12.588C9.172 12.616 9.148 12.64 9.12 12.64H8.764C8.736 12.64 8.712 12.616 8.712 12.588V11.844ZM7.73231 12.7944C7.30795 12.6588 7 12.2609 7 11.792V11.452C7 10.9834 7.30755 10.5857 7.73146 10.4499C7.82592 9.96603 8.25284 9.6 8.764 9.6H9.12C9.23396 9.6 9.34374 9.6182 9.44658 9.65183C9.63678 9.37888 9.95294 9.2 10.3103 9.2H11.3583C11.6424 9.2 11.9483 9.23787 12.2402 9.34633C12.397 9.25338 12.5799 9.2 12.7751 9.2H14.5791C15.1594 9.2 15.6311 9.67172 15.6311 10.252V10.6C15.6311 10.7797 15.5859 10.949 15.5062 11.0971C15.5507 11.2136 15.5751 11.34 15.5751 11.472V11.82C15.5751 12.4003 15.1034 12.872 14.5231 12.872H14.3573L14.3591 12.9331V12.948C14.3591 13.5283 13.8874 14 13.3071 14H12.7751C12.3424 14 11.9701 13.7377 11.8087 13.3637C11.6473 13.7377 11.275 14 10.8423 14H10.3103C9.96714 14 9.66197 13.8351 9.46985 13.5803C9.36036 13.6189 9.2426 13.64 9.12 13.64H8.764C8.25434 13.64 7.82843 13.2761 7.73231 12.7944ZM10.2611 12.9645C10.2683 12.9848 10.288 13 10.3103 13H10.8423C10.8525 13 10.8621 12.9968 10.8703 12.9914C10.8804 12.9848 10.8882 12.9747 10.8919 12.963C10.8935 12.9583 10.8943 12.9532 10.8943 12.948L10.8703 12.028H11.3543C11.3691 12.028 11.3837 12.0278 11.3983 12.0275C11.475 12.0257 11.548 12.0194 11.6171 12.0085C11.6626 12.0014 11.7065 11.9923 11.7486 11.9813C11.9898 11.9182 12.1731 11.7927 12.2872 11.6126C12.2924 11.6044 12.2974 11.5962 12.3023 11.5878C12.3075 11.5788 12.3125 11.5698 12.3174 11.5606C12.3185 11.5585 12.3196 11.5565 12.3207 11.5544C12.3486 11.5007 12.3709 11.4428 12.3875 11.3808C12.4095 11.2983 12.4213 11.2085 12.4222 11.112C12.4223 11.108 12.4223 11.104 12.4223 11.1C12.4223 11.0185 12.415 10.9425 12.4008 10.872C12.3898 10.8176 12.3747 10.7665 12.3555 10.7187C12.2698 10.5049 12.1034 10.3566 11.8669 10.2749C11.8428 10.2666 11.818 10.2589 11.7925 10.252C11.77 10.2459 11.7469 10.2403 11.7233 10.2353C11.6199 10.2132 11.506 10.2015 11.3823 10.2001C11.3743 10.2 11.3663 10.2 11.3583 10.2H10.3103C10.2823 10.2 10.2583 10.224 10.2583 10.252L10.2903 11.6L10.2583 12.948C10.2583 12.9537 10.2593 12.9593 10.2611 12.9645ZM11.5342 10.6605C11.4928 10.6505 11.4474 10.6451 11.3983 10.6442C11.393 10.6441 11.3877 10.644 11.3823 10.644H10.8863L10.8623 11.584H11.3983C11.5429 11.584 11.674 11.5329 11.7539 11.416C11.8043 11.3422 11.8343 11.2421 11.8343 11.112C11.8343 11.108 11.8343 11.104 11.8342 11.1C11.8324 10.9609 11.7988 10.8551 11.7369 10.7806C11.6871 10.7207 11.6189 10.681 11.5342 10.6605ZM12.7591 11.6L12.7231 12.948C12.7231 12.9546 12.7244 12.9609 12.7268 12.9668C12.7346 12.9859 12.7537 13 12.7751 13H13.3071C13.3293 13 13.3489 12.985 13.3561 12.9649C13.3581 12.9596 13.3591 12.9539 13.3591 12.948L13.3271 11.872H14.5231C14.5511 11.872 14.5751 11.848 14.5751 11.82V11.472C14.5751 11.444 14.5511 11.42 14.5231 11.42H13.3271L13.3591 10.652H14.5791C14.6071 10.652 14.6311 10.628 14.6311 10.6V10.252C14.6311 10.224 14.6071 10.2 14.5791 10.2H12.7751C12.7471 10.2 12.7231 10.224 12.7231 10.252L12.7591 11.6Z" fill="black"/>
</svg>
