<svg width="44" height="44" viewBox="0 0 44 44" fill="none" xmlns="http://www.w3.org/2000/svg">
<g clip-path="url(#clip0_11_985)">
<path d="M0 8C0 3.58172 3.58172 0 8 0H36C40.4183 0 44 3.58172 44 8V36C44 40.4183 40.4183 44 36 44H8C3.58172 44 0 40.4183 0 36V8Z" fill="black"/>
<path fill-rule="evenodd" clip-rule="evenodd" d="M29.4626 28.9565C29.3077 29.5758 28.7552 30 28.1404 30H24.6644C24.0496 30 23.4971 29.5758 23.3423 28.9565L23.3401 28.9479L21.9438 22.9058L20.6894 28.9372L20.6846 28.9565C20.5297 29.5758 19.9772 30 19.3624 30H15.7764C15.1616 30 14.6091 29.5758 14.4543 28.9565L14.4525 28.9494L10.9783 14.129C10.8691 13.7057 11.0018 13.3092 11.2275 13.0411C11.4431 12.7851 11.78 12.6 12.1684 12.6H15.0064C15.3633 12.6 15.6651 12.7475 15.8745 12.9284C16.0776 13.1038 16.263 13.3703 16.321 13.7102L17.7336 20.9273L19.0809 13.7159C19.1377 13.3733 19.3241 13.1048 19.5283 12.9284C19.7378 12.7475 20.0395 12.6 20.3964 12.6H23.7184C24.0753 12.6 24.3771 12.7475 24.5865 12.9284C24.7899 13.1041 24.9756 13.3711 25.0332 13.7118L26.4684 21.1355L27.9036 13.7118C27.9612 13.3711 28.1469 13.1041 28.3503 12.9284C28.5598 12.7475 28.8615 12.6 29.2184 12.6H31.8364C32.2248 12.6 32.5867 12.7789 32.8175 13.0921C33.0346 13.3867 33.0886 13.7319 33.0464 14.0274L33.0397 14.074L29.4626 28.9565ZM28.8884 13.886C28.9104 13.732 29.0644 13.6 29.2184 13.6H31.8364C31.9904 13.6 32.0784 13.732 32.0564 13.886L28.4924 28.714C28.4484 28.89 28.2944 29 28.1404 29H24.6644C24.5104 29 24.3564 28.89 24.3124 28.714L21.8924 18.242L19.7144 28.714C19.6704 28.89 19.5164 29 19.3624 29H15.7764C15.6224 29 15.4684 28.89 15.4244 28.714L11.9484 13.886C11.9044 13.732 12.0364 13.6 12.1684 13.6H15.0064C15.1604 13.6 15.3144 13.732 15.3364 13.886L17.7564 26.25L20.0664 13.886C20.0884 13.732 20.2424 13.6 20.3964 13.6H23.7184C23.8724 13.6 24.0264 13.732 24.0484 13.886L26.4684 26.404L28.8884 13.886Z" fill="url(#paint0_linear_11_985)"/>
</g>
<defs>
<linearGradient id="paint0_linear_11_985" x1="21.9995" y1="12.6" x2="21.9995" y2="30" gradientUnits="userSpaceOnUse">
<stop stop-color="#FF8F50"/>
<stop offset="1" stop-color="#BCFE95"/>
</linearGradient>
<clipPath id="clip0_11_985">
<rect width="44" height="44" fill="white"/>
</clipPath>
</defs>
</svg>
