<svg width="44" height="44" viewBox="0 0 44 44" fill="none" xmlns="http://www.w3.org/2000/svg">
<g clip-path="url(#clip0_110_28)">
<path d="M0 8C0 3.58172 3.58172 0 8 0H36C40.4183 0 44 3.58172 44 8V36C44 40.4183 40.4183 44 36 44H8C3.58172 44 0 40.4183 0 36V8Z" fill="black"/>
<path fill-rule="evenodd" clip-rule="evenodd" d="M29.4626 28.9565C29.3077 29.5758 28.7552 30 28.1404 30H24.6644C24.0496 30 23.4971 29.5758 23.3423 28.9565L23.3401 28.9479L21.9438 22.9058L20.6894 28.9372L20.6846 28.9565C20.5297 29.5758 19.9772 30 19.3624 30H15.7764C15.1616 30 14.6091 29.5758 14.4543 28.9565L14.4525 28.9494L10.9783 14.129C10.8691 13.7057 11.0018 13.3092 11.2275 13.0411C11.4431 12.7851 11.78 12.6 12.1684 12.6H15.0064C15.3633 12.6 15.6651 12.7475 15.8745 12.9284C16.0776 13.1038 16.263 13.3703 16.321 13.7102L17.7336 20.9273L19.0809 13.7159C19.1377 13.3733 19.3241 13.1048 19.5283 12.9284C19.7378 12.7475 20.0395 12.6 20.3964 12.6H23.7184C24.0753 12.6 24.3771 12.7475 24.5865 12.9284C24.7899 13.1041 24.9756 13.3711 25.0332 13.7118L26.4684 21.1355L27.9036 13.7118C27.9612 13.3711 28.1469 13.1041 28.3503 12.9284C28.5598 12.7475 28.8615 12.6 29.2184 12.6H31.8364C32.2248 12.6 32.5867 12.7789 32.8175 13.0921C33.0346 13.3867 33.0886 13.7319 33.0464 14.0274L33.0397 14.074L29.4626 28.9565ZM28.8884 13.886C28.9104 13.732 29.0644 13.6 29.2184 13.6H31.8364C31.9904 13.6 32.0784 13.732 32.0564 13.886L28.4924 28.714C28.4484 28.89 28.2944 29 28.1404 29H24.6644C24.5104 29 24.3564 28.89 24.3124 28.714L21.8924 18.242L19.7144 28.714C19.6704 28.89 19.5164 29 19.3624 29H15.7764C15.6224 29 15.4684 28.89 15.4244 28.714L11.9484 13.886C11.9044 13.732 12.0364 13.6 12.1684 13.6H15.0064C15.1604 13.6 15.3144 13.732 15.3364 13.886L17.7564 26.25L20.0664 13.886C20.0884 13.732 20.2424 13.6 20.3964 13.6H23.7184C23.8724 13.6 24.0264 13.732 24.0484 13.886L26.4684 26.404L28.8884 13.886Z" fill="url(#paint0_linear_110_28)"/>
<path d="M24.1243 28.517C24.1243 28.454 24.0703 28.4 24.0073 28.4H22.5313V26.717C22.5313 26.654 22.4773 26.6 22.4143 26.6H21.6133C21.5503 26.6 21.4963 26.654 21.4963 26.717V28.4H20.0113C19.9483 28.4 19.8943 28.454 19.8943 28.517V29.282C19.8943 29.345 19.9483 29.399 20.0113 29.399H21.4963V31.073C21.4963 31.136 21.5503 31.19 21.6133 31.19H22.4143C22.4773 31.19 22.5313 31.136 22.5313 31.073V29.399H24.0073C24.0703 29.399 24.1243 29.345 24.1243 29.282V28.517Z" fill="black"/>
<path d="M29.8444 27.725C29.8444 26.384 28.9714 25.7 27.4504 25.7H25.0924C25.0294 25.7 24.9754 25.754 24.9754 25.817L25.0474 28.85L24.9754 31.883C24.9754 31.946 25.0294 32 25.0924 32H26.2894C26.3524 32 26.4064 31.946 26.4064 31.883L26.3524 29.813H27.4414C28.9444 29.813 29.8444 29.048 29.8444 27.725ZM28.5214 27.752C28.5214 28.508 28.0714 28.814 27.5404 28.814H26.3344L26.3884 26.699H27.5044C28.1524 26.699 28.5214 27.032 28.5214 27.752Z" fill="black"/>
<path d="M31.8353 32C31.8983 32 31.9523 31.946 31.9523 31.883L31.8803 29.462H34.5713C34.6343 29.462 34.6883 29.408 34.6883 29.345V28.562C34.6883 28.499 34.6343 28.445 34.5713 28.445H31.8803L31.9523 26.717H34.6973C34.7603 26.717 34.8143 26.663 34.8143 26.6V25.817C34.8143 25.754 34.7603 25.7 34.6973 25.7H30.6383C30.5753 25.7 30.5213 25.754 30.5213 25.817L30.6023 28.85L30.5213 31.883C30.5213 31.946 30.5753 32 30.6383 32H31.8353Z" fill="black"/>
<path fill-rule="evenodd" clip-rule="evenodd" d="M21.4963 29.399H20.0113C19.9483 29.399 19.8943 29.345 19.8943 29.282V28.517C19.8943 28.454 19.9483 28.4 20.0113 28.4H21.4963V26.717C21.4963 26.654 21.5503 26.6 21.6133 26.6H22.4143C22.4773 26.6 22.5313 26.654 22.5313 26.717V28.399L24.0073 28.4C24.0173 28.4 24.0271 28.4014 24.0365 28.4039C24.0861 28.4174 24.1243 28.464 24.1243 28.517V29.282C24.1243 29.3358 24.0849 29.383 24.0342 29.3957C24.0255 29.3978 24.0165 29.399 24.0073 29.399H22.5313V31.073C22.5313 31.136 22.4773 31.19 22.4143 31.19H21.6133C21.5503 31.19 21.4963 31.136 21.4963 31.073V29.399ZM20.4963 30.399V31.073C20.4963 31.6883 20.998 32.19 21.6133 32.19H22.4143C23.0295 32.19 23.5313 31.6883 23.5313 31.073V30.399H24.0073C24.0083 30.399 24.0093 30.399 24.0103 30.399L23.9754 31.8711V31.883C23.9754 32.4983 24.4771 33 25.0924 33H26.2894C26.9047 33 27.4064 32.4983 27.4064 31.883V31.87L27.3788 30.813H27.4414C28.2192 30.813 28.961 30.6439 29.5647 30.2454L29.5213 31.8696V31.883C29.5213 32.4983 30.023 33 30.6383 33H31.8353C32.4506 33 32.9523 32.4983 32.9523 31.883V31.8681L32.9105 30.462H34.5713C35.1866 30.462 35.6883 29.9603 35.6883 29.345V28.562C35.6883 28.1637 35.478 27.8129 35.1628 27.6151C35.5467 27.4381 35.8143 27.0493 35.8143 26.6V25.817C35.8143 25.2017 35.3126 24.7 34.6973 24.7H30.6383C30.2141 24.7 29.844 24.9384 29.6549 25.2881C29.0311 24.8607 28.2531 24.7 27.4504 24.7H25.0924C24.4771 24.7 23.9754 25.2017 23.9754 25.817V25.8289L24.0127 27.4C24.0109 27.4 24.0091 27.4 24.0073 27.4H23.5313V26.717C23.5313 26.1017 23.0295 25.6 22.4143 25.6H21.6133C20.998 25.6 20.4963 26.1017 20.4963 26.717V27.4H20.0113C19.396 27.4 18.8943 27.9017 18.8943 28.517V29.282C18.8943 29.8973 19.396 30.399 20.0113 30.399H20.4963ZM25.0474 28.85L24.9754 31.883C24.9754 31.946 25.0294 32 25.0924 32H26.2894C26.3524 32 26.4064 31.946 26.4064 31.883L26.3524 29.814L27.4414 29.813C27.4747 29.813 27.5077 29.8126 27.5404 29.8119C27.6484 29.8094 27.7532 29.8029 27.8546 29.7923C28.6839 29.7061 29.2869 29.3529 29.6 28.777C29.7601 28.4826 29.8444 28.1299 29.8444 27.725C29.8444 27.2617 29.7402 26.8769 29.5411 26.5715C29.1988 26.0467 28.5761 25.7568 27.7201 25.7076C27.6497 25.7035 27.5778 25.7011 27.5044 25.7003C27.4865 25.7001 27.4685 25.7 27.4504 25.7H25.0924C25.0294 25.7 24.9754 25.754 24.9754 25.817L25.0474 28.85ZM26.3344 28.814L26.3884 26.7L27.5044 26.699C27.5559 26.699 27.6056 26.7011 27.6535 26.7053C28.2087 26.7543 28.5214 27.0892 28.5214 27.752C28.5214 28.414 28.1763 28.731 27.7339 28.7995C27.6711 28.8093 27.6064 28.814 27.5404 28.814H26.3344ZM27.3602 27.814H27.519C27.5204 27.7968 27.5214 27.7762 27.5214 27.752C27.5214 27.7322 27.5209 27.7146 27.52 27.6991C27.515 27.699 27.5098 27.699 27.5044 27.699H27.3632L27.3602 27.814ZM30.6023 28.85L30.5213 31.883C30.5213 31.946 30.5753 32 30.6383 32H31.8353C31.8983 32 31.9523 31.946 31.9523 31.883L31.8803 29.462H34.5713C34.6343 29.462 34.6883 29.408 34.6883 29.345V28.562C34.6883 28.499 34.6343 28.445 34.5713 28.445H31.8803L31.9523 26.717H34.6973C34.7603 26.717 34.8143 26.663 34.8143 26.6V25.817C34.8143 25.754 34.7603 25.7 34.6973 25.7H30.6383C30.5753 25.7 30.5213 25.754 30.5213 25.817L30.6023 28.85Z" fill="url(#paint1_linear_110_28)"/>
</g>
<defs>
<linearGradient id="paint0_linear_110_28" x1="21.9995" y1="12.6" x2="21.9995" y2="30" gradientUnits="userSpaceOnUse">
<stop stop-color="#FF8F50"/>
<stop offset="1" stop-color="#BCFE95"/>
</linearGradient>
<linearGradient id="paint1_linear_110_28" x1="27.3543" y1="24.7" x2="27.3543" y2="33" gradientUnits="userSpaceOnUse">
<stop stop-color="#FF8F50"/>
<stop offset="1" stop-color="#BCFE95"/>
</linearGradient>
<clipPath id="clip0_110_28">
<rect width="44" height="44" fill="white"/>
</clipPath>
</defs>
</svg>
