<svg width="18" height="18" viewBox="0 0 18 18" fill="none" xmlns="http://www.w3.org/2000/svg">
<path fill-rule="evenodd" clip-rule="evenodd" d="M12.9212 12.1125C12.7904 12.6358 12.3219 13 11.7911 13H10.2111C9.6803 13 9.21178 12.6358 9.08095 12.1125L9.07878 12.1039L9.0025 11.7738L8.93608 12.0932L8.93123 12.1125C8.80041 12.6358 8.33188 13 7.80109 13H6.17109C5.6403 13 5.17177 12.6358 5.04095 12.1125L5.03917 12.1054L3.46034 5.37041C3.36439 4.99003 3.48488 4.63366 3.68618 4.39462C3.87776 4.16712 4.17865 4 4.53109 4H5.82109C6.13599 4 6.39575 4.12952 6.57221 4.28193C6.74199 4.42855 6.90275 4.65522 6.95507 4.9512L7.04825 5.42726L7.13603 4.95745C7.18718 4.65841 7.349 4.42958 7.51997 4.28193C7.69644 4.12952 7.95619 4 8.27109 4H9.78109C10.096 4 10.3557 4.12952 10.5322 4.28193C10.7023 4.42883 10.8634 4.65608 10.9154 4.95289L11.0311 5.5515L11.1468 4.95288C11.1988 4.65608 11.3599 4.42883 11.53 4.28193C11.7064 4.12952 11.9662 4 12.2811 4H13.4711C13.8175 4 14.1464 4.16093 14.3561 4.44555C14.5523 4.7117 14.5973 5.01792 14.561 5.27143L14.5544 5.31798L12.9212 12.1125ZM12.1311 5.13L11.0311 10.82L9.93109 5.13C9.92109 5.06 9.85109 5 9.78109 5H8.27109C8.20109 5 8.13109 5.06 8.12109 5.13L7.07109 10.75L5.97109 5.13C5.96109 5.06 5.89109 5 5.82109 5H4.53109C4.47109 5 4.41109 5.06 4.43109 5.13L6.01109 11.87C6.03109 11.95 6.10109 12 6.17109 12H7.80109C7.87109 12 7.94109 11.95 7.96109 11.87L8.95109 7.11L10.0511 11.87C10.0711 11.95 10.1411 12 10.2111 12H11.7911C11.8611 12 11.9311 11.95 11.9511 11.87L13.5711 5.13C13.5811 5.06 13.5411 5 13.4711 5H12.2811C12.2111 5 12.1411 5.06 12.1311 5.13Z" fill="black"/>
</svg>
